Coordinates
version=1
nRows=7
nColumns=46
inDegrees=yes

Units are S.I. units (second, meters, Newtons, ...)
Angles are in degrees.

endheader
time	pelvis_tilt	pelvis_list	pelvis_rotation	pelvis_tx	pelvis_ty	pelvis_tz	bb_angle	bb_tx	bb_ty	bb_tz	hip_flexion_r	hip_adduction_r	hip_rotation_r	knee_angle_r	knee_angle_r_beta	ankle_angle_r	subtalar_angle_r	mtp_angle_r	crank_angle_r	hip_flexion_l	hip_adduction_l	hip_rotation_l	knee_angle_l	knee_angle_l_beta	ankle_angle_l	subtalar_angle_l	mtp_angle_l	crank_angle_l	lumbar_extension	lumbar_bending	lumbar_rotation	arm_flex_r	arm_add_r	arm_rot_r	elbow_flex_r	pro_sup_r	wrist_flex_r	wrist_dev_r	arm_flex_l	arm_add_l	arm_rot_l	elbow_flex_l	pro_sup_l	wrist_flex_l	wrist_dev_l
      5.00500000	    -29.22749988	     -6.61284358	    -16.89180711	      0.36940067	      1.14912680	     -0.24955126	      0.00000000	      0.50000000	      0.00000000	      0.25000000	     75.66438619	      7.81411546	     -0.20487384	    106.34744681	      1.85611310	    -14.39402657	      1.70088368	      0.00000000	      0.00000000	     29.27555556	    -19.26927093	     -8.78600216	     22.35873868	      0.39023361	    -16.06181387	      0.94283423	      0.00000000	      0.00000000	    -59.95824237	     -5.54212907	      6.07778211	     56.05416958	    -21.87830651	     33.64957664	     84.95919522	     51.89261352	      0.00000000	      0.00000000	     25.90970101	    -31.47263910	      2.14566380	    107.49516854	     51.39373393	      0.00000000	      0.00000000
      5.01000000	    -29.43744255	     -6.40312597	    -17.54327396	      0.36924659	      1.14957765	     -0.25177303	      0.00000000	      0.50000000	      0.00000000	      0.25000000	     77.11225867	      7.65999498	     -0.26207047	    106.68076439	      1.86193059	    -14.46813417	      2.23967245	      0.00000000	      0.00000000	     28.44714905	    -19.29462721	     -9.34811440	     21.59205277	      0.37685241	    -17.32268370	      2.18376286	      0.00000000	      0.00000000	    -59.89547592	     -5.45198693	      6.36434641	     56.67961526	    -21.97188628	     33.75068806	     85.12980259	     51.92276958	      0.00000000	      0.00000000	     25.55104828	    -31.10083305	      1.96945149	    107.33555303	     51.35997130	      0.00000000	      0.00000000
      5.01500000	    -29.15560179	     -5.90685698	    -18.78661915	      0.36950798	      1.15095823	     -0.25282025	      0.00000000	      0.50000000	      0.00000000	      0.25000000	     78.02790643	      8.09804594	      0.30165834	    106.88454561	      1.86548724	    -14.28243691	      3.20773590	      0.00000000	      0.00000000	     26.83289396	    -19.26157122	    -11.09093488	     20.79548892	      0.36294975	    -18.31845581	      3.88962194	      0.00000000	      0.00000000	    -60.23050500	     -6.25867315	      6.55737829	     57.25725765	    -22.38397245	     34.75220948	     85.34474861	     52.05455534	      0.00000000	      0.00000000	     25.28996399	    -30.02792739	      0.89585761	    106.89614635	     51.19901353	      0.00000000	      0.00000000
      5.02000000	    -29.31606980	     -5.60017493	    -19.42028584	      0.36909220	      1.15194129	     -0.25477256	      0.00000000	      0.50000000	      0.00000000	      0.25000000	     79.29225198	      8.01484949	      0.31495919	    106.84116848	      1.86473017	    -14.36181140	      3.54431959	      0.00000000	      0.00000000	     26.26187972	    -19.11338027	    -11.30968466	     20.46353131	      0.35715600	    -19.54299837	      4.70756557	      0.00000000	      0.00000000	    -60.28520910	     -6.28207741	      6.78249858	     57.99216785	    -22.42520181	     34.83904254	     85.54872055	     52.08669487	      0.00000000	      0.00000000	     25.13775520	    -29.69066388	      0.71672480	    106.75717642	     51.16539284	      0.00000000	      0.00000000
      5.02500000	    -29.10263735	     -5.23156102	    -20.44573383	      0.36932153	      1.15384071	     -0.25589708	      0.00000000	      0.50000000	      0.00000000	      0.25000000	     79.99234227	      8.39188669	      0.64627333	    106.64995249	      1.86139282	    -14.06082551	      4.38109128	      0.00000000	      0.00000000	     25.09575497	    -19.00690428	    -12.41557976	     20.08616745	      0.35056976	    -20.81127758	      5.54194387	      0.00000000	      0.00000000	    -60.65361463	     -6.87240008	      7.13130861	     58.77962709	    -23.14073721	     36.20194003	     85.83616724	     52.26402777	      0.00000000	      0.00000000	     25.20728466	    -28.38880964	     -0.35367154	    106.16332294	     50.99507184	      0.00000000	      0.00000000
      5.03000000	    -29.13353848	     -4.83978066	    -21.34687386	      0.36880247	      1.15558273	     -0.25709182	      0.00000000	      0.50000000	      0.00000000	      0.25000000	     80.88243724	      8.74800924	      0.87485196	    106.25685887	      1.85453204	    -13.83021472	      4.97369344	      0.00000000	      0.00000000	     24.55786410	    -18.85008000	    -13.01581250	     20.12215976	      0.35119794	    -22.15299879	      5.62397573	      0.00000000	      0.00000000	    -60.82931982	     -7.30224380	      7.37549814	     59.39364435	    -23.34227361	     36.55387413	     86.13396457	     52.33850232	      0.00000000	      0.00000000	     25.26639518	    -27.87160370	     -0.64507701	    105.82794742	     50.92944794	      0.00000000	      0.00000000
      5.03500000	    -29.21838408	     -4.37717227	    -21.98622623	      0.36807702	      1.15721856	     -0.25842848	      0.00000000	      0.50000000	      0.00000000	      0.25000000	     81.72818146	      8.87046418	      1.10899821	    105.77884894	      1.84618919	    -13.23598424	      5.73097406	      0.00000000	      0.00000000	     24.41371571	    -18.52710039	    -13.21344079	     20.48263889	      0.35748949	    -23.48096009	      5.37263317	      0.00000000	      0.00000000	    -60.96019331	     -7.56926787	      7.74141231	     60.08675839	    -23.97927967	     37.31666550	     86.66552135	     52.48095477	      0.00000000	      0.00000000	     25.75757475	    -27.06700045	     -0.80004096	    105.19693086	     50.86874479	      0.00000000	      0.00000000
